<svg width="40" height="40" viewBox="0 0 40 40" fill="none" xmlns="http://www.w3.org/2000/svg">
<mask id="mask0_209_7969" style="mask-type:alpha" maskUnits="userSpaceOnUse" x="0" y="0" width="40" height="40">
<rect width="40" height="40" fill="#D9D9D9"/>
</mask>
<g mask="url(#mask0_209_7969)">
<path d="M8.83814 31.1617C7.94592 30.2697 7.49981 29.1881 7.49981 27.9167H3.55772L4.11522 25.4167H8.35897C8.74564 24.7819 9.26647 24.2761 9.92147 23.8992C10.5762 23.5219 11.2968 23.3333 12.0831 23.3333C12.8695 23.3333 13.5902 23.5219 14.2452 23.8992C14.8999 24.2761 15.4208 24.7819 15.8077 25.4167H23.1344L26.7148 10H8.46481L8.56731 9.56417C8.69119 8.95722 8.98758 8.46153 9.45647 8.07708C9.92564 7.69236 10.4774 7.5 11.1119 7.5H29.8394L28.394 13.75H32.564L37.3236 20.0963L35.769 27.9167H33.1406C33.1406 29.1881 32.6947 30.2697 31.8027 31.1617C30.9105 32.0539 29.8288 32.5 28.5577 32.5C27.2863 32.5 26.2045 32.0539 25.3123 31.1617C24.4204 30.2697 23.9744 29.1881 23.9744 27.9167H16.6665C16.6665 29.1881 16.2204 30.2697 15.3281 31.1617C14.4362 32.0539 13.3545 32.5 12.0831 32.5C10.8117 32.5 9.73008 32.0539 8.83814 31.1617ZM26.5094 21.875H34.4069L34.6377 20.6954L31.314 16.25H27.8202L26.5094 21.875ZM26.4711 10.9808L26.7148 10L23.1344 25.4167L23.3781 24.4358L26.4711 10.9808ZM1.81064 21.9358L2.43564 19.4358H10.7531L10.1281 21.9358H1.81064ZM5.14397 15.9808L5.76897 13.4808H15.7531L15.1281 15.9808H5.14397ZM12.0831 30C12.6623 30 13.1543 29.7975 13.559 29.3925C13.964 28.9878 14.1665 28.4958 14.1665 27.9167C14.1665 27.3375 13.964 26.8456 13.559 26.4408C13.1543 26.0358 12.6623 25.8333 12.0831 25.8333C11.504 25.8333 11.012 26.0358 10.6073 26.4408C10.2023 26.8456 9.99981 27.3375 9.99981 27.9167C9.99981 28.4958 10.2023 28.9878 10.6073 29.3925C11.012 29.7975 11.504 30 12.0831 30ZM28.5577 30C29.1366 30 29.6286 29.7975 30.0336 29.3925C30.4386 28.9878 30.6411 28.4958 30.6411 27.9167C30.6411 27.3375 30.4386 26.8456 30.0336 26.4408C29.6286 26.0358 29.1366 25.8333 28.5577 25.8333C27.9786 25.8333 27.4865 26.0358 27.0815 26.4408C26.6765 26.8456 26.474 27.3375 26.474 27.9167C26.474 28.4958 26.6765 28.9878 27.0815 29.3925C27.4865 29.7975 27.9786 30 28.5577 30Z" fill="black"/>
</g>
</svg>
