<svg width="44" height="44" viewBox="0 0 44 44" fill="none" xmlns="http://www.w3.org/2000/svg">
<mask id="mask0_40_3397" style="mask-type:alpha" maskUnits="userSpaceOnUse" x="0" y="0" width="44" height="44">
<rect width="44" height="44" fill="#D9D9D9"/>
</mask>
<g mask="url(#mask0_40_3397)">
<path d="M21.9992 30.6727C22.4187 30.6727 22.7704 30.5308 23.0543 30.2469C23.3381 29.9631 23.4801 29.6114 23.4801 29.1918C23.4801 28.7723 23.3381 28.4206 23.0543 28.1368C22.7704 27.8532 22.4187 27.7114 21.9992 27.7114C21.5797 27.7114 21.228 27.8532 20.9441 28.1368C20.6602 28.4206 20.5183 28.7723 20.5183 29.1918C20.5183 29.6114 20.6602 29.9631 20.9441 30.2469C21.228 30.5308 21.5797 30.6727 21.9992 30.6727ZM20.6242 23.9742H23.3742V12.9742H20.6242V23.9742ZM22.0024 39.4163C19.5934 39.4163 17.3291 38.9592 15.2094 38.045C13.0898 37.1308 11.2461 35.8901 9.67827 34.3229C8.11046 32.7557 6.86914 30.9127 5.95431 28.794C5.03978 26.6753 4.58252 24.4116 4.58252 22.0029C4.58252 19.5939 5.03963 17.3296 5.95385 15.2099C6.86807 13.0903 8.10878 11.2466 9.67598 9.67876C11.2432 8.11095 13.0861 6.86963 15.2049 5.9548C17.3236 5.04027 19.5873 4.58301 21.996 4.58301C24.405 4.58301 26.6693 5.04012 28.7889 5.95434C30.9086 6.86856 32.7523 8.10927 34.3201 9.67647C35.8879 11.2437 37.1292 13.0866 38.0441 15.2053C38.9586 17.3241 39.4159 19.5878 39.4159 21.9965C39.4159 24.4055 38.9587 26.6698 38.0445 28.7894C37.1303 30.9091 35.8896 32.7528 34.3224 34.3206C32.7552 35.8884 30.9122 37.1297 28.7935 38.0445C26.6748 38.9591 24.4111 39.4163 22.0024 39.4163ZM21.9992 36.6663C26.0936 36.6663 29.5617 35.2455 32.4034 32.4038C35.245 29.5622 36.6659 26.0941 36.6659 21.9997C36.6659 17.9052 35.245 14.4372 32.4034 11.5955C29.5617 8.75384 26.0936 7.33301 21.9992 7.33301C17.9047 7.33301 14.4367 8.75384 11.595 11.5955C8.75335 14.4372 7.33252 17.9052 7.33252 21.9997C7.33252 26.0941 8.75335 29.5622 11.595 32.4038C14.4367 35.2455 17.9047 36.6663 21.9992 36.6663Z" fill="#DF7B05"/>
</g>
</svg>
