<svg width="44" height="44" viewBox="0 0 44 44" fill="none" xmlns="http://www.w3.org/2000/svg">
<mask id="mask0_40_3489" style="mask-type:alpha" maskUnits="userSpaceOnUse" x="0" y="0" width="44" height="44">
<rect width="44" height="44" fill="#D9D9D9"/>
</mask>
<g mask="url(#mask0_40_3489)">
<path d="M8.25 34.6215V31.872H11.5642V18.1921C11.5642 15.7266 12.3252 13.5466 13.8472 11.6521C15.3688 9.75768 17.3226 8.546 19.7083 8.01709V6.87492C19.7083 6.23845 19.9309 5.69731 20.3761 5.2515C20.8213 4.806 21.3618 4.58325 21.9977 4.58325C22.6339 4.58325 23.1752 4.806 23.6216 5.2515C24.0683 5.69731 24.2917 6.23845 24.2917 6.87492V8.01709C26.6774 8.546 28.6312 9.75768 30.1528 11.6521C31.6748 13.5466 32.4358 15.7266 32.4358 18.1921V31.872H35.75V34.6215H8.25ZM21.9968 39.769C21.0847 39.769 20.3049 39.4445 19.6575 38.7955C19.0097 38.1465 18.6858 37.3663 18.6858 36.4548H25.3142C25.3142 37.3694 24.9894 38.1504 24.3398 38.7978C23.6902 39.4453 22.9092 39.769 21.9968 39.769ZM14.3142 31.872H29.6858V18.1921C29.6858 16.0697 28.9355 14.2582 27.4349 12.7576C25.934 11.2567 24.1224 10.5063 22 10.5063C19.8776 10.5063 18.066 11.2567 16.5651 12.7576C15.0645 14.2582 14.3142 16.0697 14.3142 18.1921V31.872Z" fill="white"/>
</g>
</svg>
